<mxfile host="app.diagrams.net" modified="2021-02-25T17:52:04.556Z" agent="5.0 (X11; Linux x86_64) AppleWebKit/537.36 (KHTML, like Gecko) Chrome/87.0.4280.141 Safari/537.36" etag="R9hIq2K3wkr4oxfvtkbT" version="14.4.3" type="github">
  <diagram id="LeLp1ltLbhlh3DqvSOOj" name="Page-1">
    <mxGraphModel dx="2368" dy="1252" grid="1" gridSize="10" guides="1" tooltips="1" connect="1" arrows="1" fold="1" page="1" pageScale="1" pageWidth="850" pageHeight="1100" math="0" shadow="0">
      <root>
        <mxCell id="0" />
        <mxCell id="1" parent="0" />
        <mxCell id="xrDvWu5LhmILpLoWPCTc-11" value="" style="whiteSpace=wrap;html=1;aspect=fixed;" vertex="1" parent="1">
          <mxGeometry x="50" y="30" width="660" height="660" as="geometry" />
        </mxCell>
        <mxCell id="xrDvWu5LhmILpLoWPCTc-12" value="" style="whiteSpace=wrap;html=1;aspect=fixed;" vertex="1" parent="1">
          <mxGeometry x="80" y="90" width="270" height="270" as="geometry" />
        </mxCell>
        <mxCell id="xrDvWu5LhmILpLoWPCTc-13" value="" style="outlineConnect=0;fontColor=#232F3E;gradientColor=none;fillColor=#232F3E;strokeColor=none;dashed=0;verticalLabelPosition=bottom;verticalAlign=top;align=center;html=1;fontSize=12;fontStyle=0;aspect=fixed;pointerEvents=1;shape=mxgraph.aws4.traditional_server;" vertex="1" parent="1">
          <mxGeometry x="120" y="120" width="63.46" height="110" as="geometry" />
        </mxCell>
        <mxCell id="xrDvWu5LhmILpLoWPCTc-14" value="" style="outlineConnect=0;fontColor=#232F3E;gradientColor=none;fillColor=#232F3E;strokeColor=none;dashed=0;verticalLabelPosition=bottom;verticalAlign=top;align=center;html=1;fontSize=12;fontStyle=0;aspect=fixed;pointerEvents=1;shape=mxgraph.aws4.traditional_server;" vertex="1" parent="1">
          <mxGeometry x="230" y="120" width="63.46" height="110" as="geometry" />
        </mxCell>
        <mxCell id="xrDvWu5LhmILpLoWPCTc-15" value="" style="whiteSpace=wrap;html=1;aspect=fixed;" vertex="1" parent="1">
          <mxGeometry x="280" y="410" width="220" height="220" as="geometry" />
        </mxCell>
        <mxCell id="xrDvWu5LhmILpLoWPCTc-16" value="" style="outlineConnect=0;fontColor=#232F3E;gradientColor=none;fillColor=#232F3E;strokeColor=none;dashed=0;verticalLabelPosition=bottom;verticalAlign=top;align=center;html=1;fontSize=12;fontStyle=0;aspect=fixed;pointerEvents=1;shape=mxgraph.aws4.traditional_server;" vertex="1" parent="1">
          <mxGeometry x="363.85" y="440" width="46.15" height="80" as="geometry" />
        </mxCell>
        <mxCell id="xrDvWu5LhmILpLoWPCTc-17" value="" style="verticalLabelPosition=bottom;html=1;verticalAlign=top;align=center;strokeColor=none;fillColor=#00BEF2;shape=mxgraph.azure.server;" vertex="1" parent="1">
          <mxGeometry x="126.73" y="260" width="53.27" height="30" as="geometry" />
        </mxCell>
        <mxCell id="xrDvWu5LhmILpLoWPCTc-18" value="" style="verticalLabelPosition=bottom;html=1;verticalAlign=top;align=center;strokeColor=none;fillColor=#00BEF2;shape=mxgraph.azure.server;" vertex="1" parent="1">
          <mxGeometry x="235.10000000000002" y="260" width="53.27" height="30" as="geometry" />
        </mxCell>
        <mxCell id="xrDvWu5LhmILpLoWPCTc-19" value="" style="whiteSpace=wrap;html=1;aspect=fixed;" vertex="1" parent="1">
          <mxGeometry x="410" y="90" width="270" height="270" as="geometry" />
        </mxCell>
        <mxCell id="xrDvWu5LhmILpLoWPCTc-20" value="" style="outlineConnect=0;fontColor=#232F3E;gradientColor=none;fillColor=#232F3E;strokeColor=none;dashed=0;verticalLabelPosition=bottom;verticalAlign=top;align=center;html=1;fontSize=12;fontStyle=0;aspect=fixed;pointerEvents=1;shape=mxgraph.aws4.traditional_server;" vertex="1" parent="1">
          <mxGeometry x="450" y="120" width="63.46" height="110" as="geometry" />
        </mxCell>
        <mxCell id="xrDvWu5LhmILpLoWPCTc-21" value="" style="outlineConnect=0;fontColor=#232F3E;gradientColor=none;fillColor=#232F3E;strokeColor=none;dashed=0;verticalLabelPosition=bottom;verticalAlign=top;align=center;html=1;fontSize=12;fontStyle=0;aspect=fixed;pointerEvents=1;shape=mxgraph.aws4.traditional_server;" vertex="1" parent="1">
          <mxGeometry x="560" y="120" width="63.46" height="110" as="geometry" />
        </mxCell>
        <mxCell id="xrDvWu5LhmILpLoWPCTc-22" value="" style="verticalLabelPosition=bottom;html=1;verticalAlign=top;align=center;strokeColor=none;fillColor=#00BEF2;shape=mxgraph.azure.server;" vertex="1" parent="1">
          <mxGeometry x="456.73" y="260" width="53.27" height="30" as="geometry" />
        </mxCell>
        <mxCell id="xrDvWu5LhmILpLoWPCTc-23" value="" style="verticalLabelPosition=bottom;html=1;verticalAlign=top;align=center;strokeColor=none;fillColor=#00BEF2;shape=mxgraph.azure.server;" vertex="1" parent="1">
          <mxGeometry x="565.1" y="260" width="53.27" height="30" as="geometry" />
        </mxCell>
        <mxCell id="xrDvWu5LhmILpLoWPCTc-24" value="" style="verticalLabelPosition=bottom;html=1;verticalAlign=top;align=center;strokeColor=none;fillColor=#00BEF2;shape=mxgraph.azure.server;" vertex="1" parent="1">
          <mxGeometry x="363.85" y="540" width="53.27" height="30" as="geometry" />
        </mxCell>
        <mxCell id="xrDvWu5LhmILpLoWPCTc-25" value="" style="aspect=fixed;perimeter=ellipsePerimeter;html=1;align=center;shadow=0;dashed=0;spacingTop=3;image;image=img/lib/active_directory/database_server.svg;" vertex="1" parent="1">
          <mxGeometry x="1060" y="260" width="155.8" height="190" as="geometry" />
        </mxCell>
        <mxCell id="xrDvWu5LhmILpLoWPCTc-26" value="" style="pointerEvents=1;shadow=0;dashed=0;html=1;strokeColor=none;fillColor=#505050;labelPosition=center;verticalLabelPosition=bottom;verticalAlign=top;outlineConnect=0;align=center;shape=mxgraph.office.devices.mac_client;" vertex="1" parent="1">
          <mxGeometry x="618.37" y="800" width="120" height="100" as="geometry" />
        </mxCell>
      </root>
    </mxGraphModel>
  </diagram>
</mxfile>
